<svg width="108" height="108" viewBox="0 0 108 108" fill="none" xmlns="http://www.w3.org/2000/svg">
<g id="Button #1 / Discover">
<circle id="Ellipse 2" cx="54" cy="54" r="54" fill="white"/>
<path id="DISCOVER" d="M22.5243 59.62C24.2643 59.62 25.4163 58.612 25.5003 56.824H24.0723C23.9883 57.88 23.4483 58.36 22.4403 58.36C21.3003 58.36 20.7123 57.592 20.7123 56.416V54.208C20.7123 53.008 21.3003 52.24 22.4523 52.24C23.4603 52.24 23.9643 52.768 24.0723 53.776H25.5003C25.3803 52.12 24.3483 50.98 22.4163 50.98C20.5323 50.98 19.2363 52.096 19.2363 54.16V56.452C19.2363 58.516 20.5203 59.62 22.5243 59.62ZM30.2989 59.62C32.3149 59.62 33.6109 58.516 33.6109 56.452V54.148C33.6109 52.096 32.3149 50.98 30.2989 50.98C28.2829 50.98 26.9869 52.096 26.9869 54.16V56.452C26.9869 58.516 28.2829 59.62 30.2989 59.62ZM30.2989 52.24C31.5469 52.24 32.1349 53.008 32.1349 54.196V56.404C32.1349 57.592 31.5469 58.36 30.2989 58.36C29.0509 58.36 28.4629 57.592 28.4629 56.416V54.208C28.4629 53.008 29.0509 52.24 30.2989 52.24ZM40.1706 59.5H41.8986V51.1L40.4946 51.1V57.304L37.3866 51.1H35.6586V59.5H37.0626V53.296L40.1706 59.5ZM49.6529 52.36V51.1H43.3889V52.36H45.8009V59.5H47.2529V52.36H49.6529ZM55.416 59.5H56.988L54 51.1H52.464L49.464 59.5H50.988L51.6 57.7H54.804L55.416 59.5ZM54.396 56.44H51.984L53.196 52.876L54.396 56.44ZM61.3124 59.62C63.0524 59.62 64.2044 58.612 64.2884 56.824H62.8604C62.7764 57.88 62.2364 58.36 61.2284 58.36C60.0884 58.36 59.5004 57.592 59.5004 56.416V54.208C59.5004 53.008 60.0884 52.24 61.2404 52.24C62.2484 52.24 62.7524 52.768 62.8604 53.776H64.2884C64.1684 52.12 63.1364 50.98 61.2044 50.98C59.3204 50.98 58.0244 52.096 58.0244 54.16V56.452C58.0244 58.516 59.3084 59.62 61.3124 59.62ZM71.475 52.36V51.1H65.211V52.36H67.623V59.5H69.075V52.36H71.475ZM80.8854 51.1V56.62C80.8854 57.664 80.3694 58.36 79.2894 58.36C78.2214 58.36 77.7054 57.664 77.7054 56.62V51.1H76.2294V56.668C76.2294 58.576 77.4294 59.62 79.2894 59.62C81.1614 59.62 82.3734 58.576 82.3734 56.668V51.1H80.8854ZM86.9567 52.24C87.9047 52.24 88.2767 52.684 88.3487 53.56H89.7767C89.7167 51.94 88.7927 50.98 86.9567 50.98C85.0847 50.98 84.2447 51.94 84.2447 53.26C84.2447 54.532 84.8207 55.108 86.3327 55.66L87.1607 55.96C88.1687 56.344 88.4567 56.608 88.4567 57.28C88.4567 58.012 88.0727 58.36 87.1127 58.36C86.0567 58.36 85.6127 57.964 85.4567 57.04H84.0287C84.2327 58.852 85.3127 59.62 87.1127 59.62C89.0567 59.62 89.9327 58.756 89.9327 57.208C89.9327 55.972 89.4527 55.348 87.7967 54.724L86.9207 54.388C86.0327 54.052 85.7327 53.836 85.7327 53.212C85.7327 52.648 86.0447 52.24 86.9567 52.24Z" fill="black"/>
</g>
</svg>
